<svg width="22" height="21" viewBox="0 0 22 21" fill="none" xmlns="http://www.w3.org/2000/svg">
<path d="M18.1333 0H3.2C2.35131 0 1.53737 0.337142 0.937258 0.937258C0.337142 1.53737 0 2.35131 0 3.2V18.1333C0 18.982 0.337142 19.796 0.937258 20.3961C1.53737 20.9962 2.35131 21.3333 3.2 21.3333H18.1333C18.982 21.3333 19.796 20.9962 20.3961 20.3961C20.9962 19.796 21.3333 18.982 21.3333 18.1333V3.2C21.3333 2.35131 20.9962 1.53737 20.3961 0.937258C19.796 0.337142 18.982 0 18.1333 0ZM8.53333 5.33333C8.95527 5.33333 9.36773 5.45845 9.71855 5.69287C10.0694 5.92728 10.3428 6.26046 10.5043 6.65028C10.6657 7.04009 10.708 7.46903 10.6257 7.88286C10.5434 8.29669 10.3402 8.67681 10.0418 8.97516C9.74348 9.27351 9.36335 9.47669 8.94953 9.55901C8.5357 9.64132 8.10676 9.59908 7.71694 9.43761C7.32713 9.27614 6.99395 9.00271 6.75953 8.65188C6.52512 8.30106 6.4 7.8886 6.4 7.46667C6.4 6.90087 6.62476 6.35825 7.02484 5.95817C7.42492 5.55809 7.96754 5.33333 8.53333 5.33333ZM5.856 19.2H3.2C2.97423 19.1961 2.7555 19.1207 2.57531 18.9846C2.39513 18.8485 2.26278 18.6588 2.19733 18.4427L5.49333 14.4853C5.59958 14.3665 5.72934 14.271 5.87438 14.2049C6.01943 14.1388 6.17662 14.1036 6.336 14.1013C6.49798 14.1046 6.65708 14.1447 6.80124 14.2186C6.9454 14.2926 7.07083 14.3984 7.168 14.528L8.23467 15.9467L5.856 19.2ZM19.2 18.1333C19.2 18.4162 19.0876 18.6875 18.8876 18.8876C18.6875 19.0876 18.4162 19.2 18.1333 19.2H8.53333L14.368 11.1787C14.4585 11.0538 14.5749 10.9501 14.7094 10.8746C14.8438 10.7991 14.993 10.7536 15.1467 10.7413C15.3012 10.7286 15.4566 10.7496 15.6021 10.803C15.7477 10.8565 15.8798 10.941 15.9893 11.0507L19.2 14.304V18.1333Z" fill="black"/>
</svg>
