<svg width="29" height="29" viewBox="0 0 29 29" fill="none" xmlns="http://www.w3.org/2000/svg">
<path d="M9.76074 18.5101H15.0737L27.2057 6.39203C27.5557 6.04237 27.8333 5.62717 28.0227 5.17016C28.2121 4.71314 28.3096 4.22328 28.3096 3.72858C28.3096 3.23387 28.2121 2.74401 28.0227 2.287C27.8333 1.82998 27.5557 1.41478 27.2057 1.06512C26.4875 0.381362 25.5339 0 24.5422 0C23.5506 0 22.597 0.381362 21.8788 1.06512L9.76074 13.1971V18.5101ZM12.5497 14.3266L23.859 3.03134C23.9488 2.93683 24.057 2.86157 24.1768 2.81015C24.2967 2.75873 24.4258 2.73222 24.5562 2.73222C24.6866 2.73222 24.8157 2.75873 24.9355 2.81015C25.0554 2.86157 25.1636 2.93683 25.2534 3.03134C25.3498 3.12014 25.4267 3.22794 25.4793 3.34794C25.5319 3.46795 25.559 3.59755 25.559 3.72858C25.559 3.8596 25.5319 3.9892 25.4793 4.10921C25.4267 4.22921 25.3498 4.33701 25.2534 4.42582L13.9442 15.7211H12.5497V14.3266Z" fill="white"/>
<path d="M25.0999 24.1854C25.0999 24.5293 24.9633 24.8592 24.7201 25.1024C24.4769 25.3456 24.147 25.4823 23.8031 25.4823H4.0851C3.74115 25.4823 3.41129 25.3456 3.16808 25.1024C2.92487 24.8592 2.78823 24.5293 2.78823 24.1854V4.46742C2.78823 4.12347 2.92487 3.79361 3.16808 3.5504C3.41129 3.30719 3.74115 3.17055 4.0851 3.17055H18.1275V0.381592H4.0851C3.00147 0.381592 1.96222 0.812062 1.19598 1.5783C0.429738 2.34455 -0.000732422 3.38379 -0.000732422 4.46742V24.1854C-0.000732422 25.269 0.429738 26.3083 1.19598 27.0745C1.96222 27.8407 3.00147 28.2712 4.0851 28.2712H23.8031C24.8867 28.2712 25.926 27.8407 26.6922 27.0745C27.4584 26.3083 27.8889 25.269 27.8889 24.1854V11.5374H25.0999V24.1854Z" fill="white"/>
</svg>
