<svg width="31" height="30" viewBox="0 0 31 30" fill="none" xmlns="http://www.w3.org/2000/svg">
<path d="M26.5359 0L3.77296 0C1.70079 0 -0.000244141 1.70103 -0.000244141 3.7732V26.2577C-0.000244141 28.299 1.70079 30 3.77296 30H26.5668C28.6081 30 30.3091 28.299 30.3091 26.2268V3.7732C30.3091 1.70103 28.6081 0 26.5359 0ZM14.8142 8.4433H24.8967C25.4534 8.4433 25.9173 8.90722 25.9173 9.46392C25.9173 10.0206 25.4534 10.4845 24.8967 10.4845H14.8142C14.2575 10.4845 13.7936 10.0206 13.7936 9.46392C13.8245 8.87629 14.2575 8.4433 14.8142 8.4433ZM13.8245 5.41237C13.8245 4.85567 14.2885 4.39175 14.8452 4.39175H21.8349C22.3916 4.39175 22.8555 4.85567 22.8555 5.41237C22.8555 5.96907 22.3916 6.43299 21.8349 6.43299H14.8142C14.2575 6.40206 13.8245 5.96907 13.8245 5.41237ZM10.4534 5.75258V9.09279C10.4534 9.83506 9.83483 10.4536 9.09256 10.4536H5.75235C5.01008 10.4536 4.39152 9.83506 4.39152 9.09279V5.75258C4.39152 5.01031 5.01008 4.39175 5.75235 4.39175H9.09256C9.83483 4.39175 10.4534 5.01031 10.4534 5.75258ZM26.5359 27.5258H3.77296C3.06162 27.5258 2.47399 26.9382 2.47399 26.2268V13.6083H27.8349V26.2268C27.8349 26.9382 27.2472 27.5258 26.5359 27.5258Z" fill="white"/>
</svg>
