<svg width="28" height="28" viewBox="0 0 28 28" fill="none" xmlns="http://www.w3.org/2000/svg">
<path d="M24.9398 27.0607C25.5255 27.6465 26.4753 27.6465 27.0611 27.0607C27.6469 26.4749 27.6469 25.5251 27.0611 24.9394L24.9398 27.0607ZM19.7054 17.5837C19.1196 16.9979 18.1699 16.9979 17.5841 17.5837C16.9983 18.1695 16.9983 19.1192 17.5841 19.705L19.7054 17.5837ZM27.0611 24.9394L19.7054 17.5837L17.5841 19.705L24.9398 27.0607L27.0611 24.9394ZM19.7047 19.7049C21.7389 17.6706 22.9997 14.8561 22.9997 11.75H19.9997C19.9997 14.0285 19.078 16.0889 17.5834 17.5836L19.7047 19.7049ZM22.9997 11.75C22.9997 5.53679 17.963 0.5 11.7497 0.5V3.5C16.3061 3.5 19.9997 7.19363 19.9997 11.75H22.9997ZM11.7497 0.5C5.53654 0.5 0.499756 5.53678 0.499756 11.75H3.49976C3.49976 7.19364 7.19339 3.5 11.7497 3.5V0.5ZM0.499756 11.75C0.499756 17.9632 5.53655 22.9999 11.7497 22.9999V19.9999C7.19339 19.9999 3.49976 16.3064 3.49976 11.75H0.499756ZM11.7497 22.9999C14.8559 22.9999 17.6704 21.7392 19.7047 19.7049L17.5834 17.5836C16.0887 19.0782 14.0283 19.9999 11.7497 19.9999V22.9999Z" fill="white"/>
</svg>
