<svg width="11" height="11" viewBox="0 0 11 11" fill="none" xmlns="http://www.w3.org/2000/svg">
<path fill-rule="evenodd" clip-rule="evenodd" d="M1.73265 0.332764C1.99038 0.332764 2.19931 0.541697 2.19931 0.79943V1.2661C2.19931 1.52383 1.99038 1.73276 1.73265 1.73276C1.47492 1.73276 1.26598 1.52383 1.26598 1.2661V0.79943C1.26598 0.541697 1.47492 0.332764 1.73265 0.332764ZM1.73265 2.66612C2.24811 2.66612 2.66598 3.08399 2.66598 3.59946C2.66598 4.11492 2.24811 4.53279 1.73265 4.53279C1.21718 4.53279 0.799316 4.11492 0.799316 3.59946C0.799316 3.08399 1.21718 2.66612 1.73265 2.66612ZM9.66597 4.06605C10.1815 4.06605 10.5993 4.48392 10.5993 4.99938C10.5993 5.51486 10.1815 5.93272 9.66597 5.93272C9.15049 5.93272 8.73264 5.51486 8.73264 4.99938C8.73264 4.48392 9.15049 4.06605 9.66597 4.06605ZM5.46597 5.4661C5.98145 5.4661 6.39931 5.88396 6.39931 6.39944C6.39931 6.91492 5.98145 7.33277 5.46597 7.33277C4.95051 7.33277 4.53264 6.91492 4.53264 6.39944C4.53264 5.88396 4.95051 5.4661 5.46597 5.4661ZM5.46597 8.26613C5.72371 8.26613 5.93264 8.47505 5.93264 8.73279V9.66613C5.93264 9.92387 5.72371 10.1328 5.46597 10.1328C5.20824 10.1328 4.99931 9.92387 4.99931 9.66613V8.73279C4.99931 8.47505 5.20824 8.26613 5.46597 8.26613ZM1.73265 5.4661C1.99038 5.4661 2.19931 5.67503 2.19931 5.93277V9.6661C2.19931 9.92384 1.99038 10.1328 1.73265 10.1328C1.47492 10.1328 1.26598 9.92384 1.26598 9.6661V5.93277C1.26598 5.67503 1.47492 5.4661 1.73265 5.4661ZM9.66598 0.332764C9.92372 0.332764 10.1326 0.541697 10.1326 0.79943V2.6661C10.1326 2.92383 9.92372 3.13276 9.66598 3.13276C9.40824 3.13276 9.19931 2.92383 9.19931 2.6661V0.79943C9.19931 0.541697 9.40824 0.332764 9.66598 0.332764ZM9.66597 6.39941C9.92371 6.39941 10.1326 6.60834 10.1326 6.86608V9.66608C10.1326 9.92382 9.92371 10.1327 9.66597 10.1327C9.40823 10.1327 9.19931 9.92382 9.19931 9.66608V6.86608C9.19931 6.60834 9.40823 6.39941 9.66597 6.39941ZM5.46598 0.332764C5.72372 0.332764 5.93264 0.541697 5.93264 0.799431V4.0661C5.93264 4.32383 5.72372 4.53277 5.46598 4.53277C5.20824 4.53277 4.99931 4.32383 4.99931 4.0661V0.799431C4.99931 0.541697 5.20824 0.332764 5.46598 0.332764Z" fill="white"/>
</svg>
