<svg width="31" height="31" viewBox="0 0 31 31" fill="none" xmlns="http://www.w3.org/2000/svg">
<path d="M30.2164 10.2048L28.2917 8.2802C26.6923 9.8796 24.0991 9.87962 22.4997 8.2802C20.9003 6.68082 20.9003 4.08762 22.4997 2.48822L20.5751 0.563573C19.8236 -0.187858 18.594 -0.187858 17.8426 0.563573L0.563573 17.8426C-0.187858 18.594 -0.187858 19.8237 0.563573 20.5751L2.4882 22.4998C4.08762 20.9004 6.68079 20.9004 8.28017 22.4998C9.87959 24.0992 9.87957 26.6924 8.28017 28.2917L10.2048 30.2164C10.9563 30.9679 12.1859 30.9679 12.9373 30.2164L30.2164 12.9374C30.9678 12.1859 30.9678 10.9563 30.2164 10.2048ZM8.84715 15.789C8.38272 16.5175 7.34358 16.5174 6.87925 15.7889C6.64523 15.4218 6.64514 14.9367 6.87897 14.5694C7.34316 13.8403 8.38315 13.8402 8.84743 14.5693C9.08134 14.9366 9.08122 15.4218 8.84715 15.789ZM11.4855 18.4274C11.0211 19.1559 9.98194 19.1558 9.51763 18.4273C9.28363 18.0601 9.28351 17.575 9.51737 17.2078C9.98154 16.4786 11.0215 16.4786 11.4858 17.2077C11.7197 17.575 11.7196 18.0602 11.4855 18.4274ZM14.1239 21.0657C13.6595 21.7942 12.6204 21.7942 12.156 21.0657C11.922 20.6985 11.9219 20.2134 12.1557 19.8461C12.6199 19.117 13.6599 19.1169 14.1242 19.8461C14.3581 20.2133 14.3579 20.6985 14.1239 21.0657ZM16.7623 23.7041C16.2979 24.4326 15.2587 24.4325 14.7944 23.704C14.5604 23.3368 14.5603 22.8518 14.7941 22.4845C15.2582 21.7554 16.2983 21.7553 16.7626 22.4844C16.9964 22.8517 16.9963 23.3369 16.7623 23.7041Z" fill="white"/>
</svg>
