<svg width="23" height="24" viewBox="0 0 23 24" fill="none" xmlns="http://www.w3.org/2000/svg">
<path d="M11.1845 0C10.4302 0 9.6468 0.867066 9.66445 1.60005V11.2003C9.6525 12.0457 10.3391 12.8004 11.1845 12.8004C12.0299 12.8004 12.7165 12.0457 12.7045 11.2003V1.60005C12.7279 0.631859 11.9388 0 11.1845 0ZM5.83426 4.00012C5.69476 4.03099 5.55964 4.08166 5.43425 4.15012C0.634902 6.6646 -0.835382 11.827 0.434096 16.1006C1.70357 20.3727 5.68209 24 11.1344 24C16.5093 24 20.5382 20.5615 21.8855 16.3502C23.2311 12.1387 21.7927 7.03245 16.8853 4.19941C16.1909 3.79363 15.1909 4.05556 14.7844 4.74934C14.3787 5.44312 14.6404 6.44363 15.3349 6.84941C19.1603 9.05715 19.947 12.4406 18.9849 15.4497C18.0229 18.4587 15.2344 20.9498 11.1347 20.9498C7.01317 20.9498 4.25837 18.3094 3.3345 15.1996C2.41032 12.0899 3.2593 8.72258 6.83429 6.84941C7.44023 6.51932 7.76088 5.74137 7.56359 5.08023C7.36646 4.41893 6.67204 3.94372 5.98434 3.9994C5.93426 3.997 5.88418 3.997 5.83426 3.9994V4.00012Z" fill="white"/>
</svg>
