<svg width="24" height="24" viewBox="0 0 24 24" fill="none" xmlns="http://www.w3.org/2000/svg">
<path fill-rule="evenodd" clip-rule="evenodd" d="M11.9711 0.960449C12.7386 0.960449 14.0528 1.58267 14.0528 2.35022V10.6889H21.6995C22.4671 10.6889 23.054 11.7562 23.054 12.5237C23.054 13.2913 22.4671 14.1603 21.6995 14.1603H14.0528V21.8071C14.0528 22.5746 12.7386 23.1968 11.9711 23.1968C11.2035 23.1968 9.96126 22.5746 9.96126 21.8071V14.1603H2.24265C1.4751 14.1603 0.959961 13.2913 0.959961 12.5237C0.959961 11.7562 1.4751 10.6889 2.24265 10.6889H9.96126V2.35022C9.96126 1.58267 11.2035 0.960449 11.9711 0.960449Z" fill="white"/>
</svg>
