<svg width="27" height="21" viewBox="0 0 27 21" fill="none" xmlns="http://www.w3.org/2000/svg">
<path d="M21.9497 2.37296H20.4547C20.1416 2.37321 19.8315 2.31148 19.5424 2.19134C19.2532 2.07119 18.9907 1.89501 18.7699 1.67294L17.453 0.344096C17.3421 0.234132 17.2106 0.147134 17.0661 0.08809C16.9215 0.0290458 16.7667 -0.000882945 16.6106 1.9831e-05H9.49175C9.33561 -0.000882945 9.18082 0.0290458 9.03626 0.08809C8.8917 0.147134 8.76022 0.234132 8.64936 0.344096L7.33238 1.67294C7.11163 1.89501 6.84911 2.07119 6.55995 2.19134C6.27079 2.31148 5.96072 2.37321 5.64759 2.37296H4.15264C3.05129 2.37296 1.99505 2.81047 1.21628 3.58924C0.437509 4.36801 0 5.42425 0 6.5256V16.0174C0 17.1187 0.437509 18.1749 1.21628 18.9537C1.99505 19.7325 3.05129 20.17 4.15264 20.17H21.9497C23.051 20.17 24.1073 19.7325 24.886 18.9537C25.6648 18.1749 26.1023 17.1187 26.1023 16.0174V6.5256C26.1023 5.42425 25.6648 4.36801 24.886 3.58924C24.1073 2.81047 23.051 2.37296 21.9497 2.37296ZM13.0512 15.4241C12.1125 15.4241 11.1949 15.1458 10.4145 14.6243C9.63404 14.1028 9.02575 13.3616 8.66654 12.4944C8.30734 11.6272 8.21335 10.673 8.39647 9.75237C8.57959 8.83176 9.0316 7.98612 9.69532 7.3224C10.359 6.65868 11.2047 6.20668 12.1253 6.02356C13.0459 5.84044 14.0001 5.93442 14.8673 6.29362C15.7345 6.65283 16.4757 7.26112 16.9972 8.04158C17.5187 8.82203 17.797 9.7396 17.797 10.6782C17.797 11.9369 17.297 13.1441 16.407 14.0341C15.517 14.9241 14.3098 15.4241 13.0512 15.4241ZM21.9497 7.71207C21.715 7.71207 21.4856 7.64249 21.2905 7.51212C21.0954 7.38174 20.9433 7.19644 20.8535 6.97964C20.7637 6.76285 20.7402 6.52429 20.786 6.29413C20.8318 6.06398 20.9448 5.85257 21.1107 5.68664C21.2766 5.52071 21.4881 5.40771 21.7182 5.36193C21.9484 5.31615 22.1869 5.33965 22.4037 5.42945C22.6205 5.51925 22.8058 5.67132 22.9362 5.86643C23.0666 6.06155 23.1361 6.29094 23.1361 6.5256C23.1361 6.84027 23.0111 7.14206 22.7886 7.36456C22.5661 7.58707 22.2643 7.71207 21.9497 7.71207Z" fill="black"/>
</svg>
