<svg width="22" height="22" viewBox="0 0 22 22" fill="none" xmlns="http://www.w3.org/2000/svg">
<path d="M19.0659 12.0184C19.2018 12.2962 19.1124 12.6259 19.0154 12.9182C18.7977 13.5475 18.5098 14.1541 18.164 14.7251C17.9792 15.033 17.7643 15.3796 17.8647 15.7278C17.9293 15.9516 18.1053 16.115 18.2809 16.2658C19.0622 16.967 19.8433 17.6619 20.6306 18.3566C21.0213 18.7072 21.4317 19.0822 21.613 19.5783C21.788 20.0746 21.6468 20.7263 21.1625 20.9442C20.585 21.203 19.9632 20.7349 19.5065 20.2987C18.6324 19.4688 17.7646 18.6388 16.8966 17.8025C16.59 17.5118 16.1253 17.2077 15.7939 17.4705C13.2022 19.4701 9.53777 20.0062 6.47601 18.8383C3.41425 17.6705 1.05731 14.8326 0.472072 11.619C-0.106866 8.40505 1.10853 4.92126 3.5685 2.76301C6.02826 0.598483 9.64683 -0.168423 12.7776 0.80866C15.9082 1.77947 18.4427 4.46665 19.2282 7.63566C19.3537 8.15878 18.8484 8.67882 18.3071 8.71028C17.7721 8.74152 17.2685 8.40744 16.9385 7.98565C16.6021 7.56409 16.3952 7.05637 16.1329 6.58826C14.685 3.95733 11.4042 2.47682 8.45615 3.11983C5.51438 3.76263 3.15579 6.47625 2.93879 9.47303C2.72157 12.4635 4.66239 15.4854 7.48083 16.5488C10.2993 17.6121 13.759 16.631 15.5996 14.2557C15.7625 14.0428 15.856 13.6502 15.5951 13.5839C14.1192 13.221 12.6434 12.8581 11.1612 12.4954C10.9066 12.4289 10.6264 12.3508 10.4799 12.1298C10.38 11.9763 10.3667 11.7758 10.3662 11.5812C10.3566 10.9472 10.7763 10.1191 11.3601 9.86005C11.7389 9.68982 11.9209 9.86899 12.3217 9.96803C14.2564 10.4657 16.1908 10.957 18.1252 11.4484C18.4943 11.5422 18.9088 11.6722 19.0659 12.0184Z" fill="white"/>
</svg>
