<svg width="27" height="25" viewBox="0 0 27 25" fill="none" xmlns="http://www.w3.org/2000/svg">
<path fill-rule="evenodd" clip-rule="evenodd" d="M25.595 11.626L1.32608 0.0867013C0.939645 -0.0940807 0.478536 0.0136192 0.209711 0.355951C-0.0609801 0.698283 -0.0703143 1.18486 0.187309 1.5368C0.187309 1.5368 5.40598 7.80089 8.01101 11.3791C8.06623 11.455 13.0682 12.4991 13.0682 12.4991C13.0682 12.4991 8.06335 13.5213 8.01101 13.5932C5.40311 17.1754 0.187309 23.4614 0.187309 23.4614C-0.0703143 23.8134 -0.0609801 24.3019 0.207845 24.6423C0.388928 24.875 0.65962 25 0.934045 25C1.06659 25 1.19914 24.9712 1.32421 24.9115L25.5931 13.3723C25.9254 13.2146 26.1364 12.8741 26.1364 12.4991C26.1364 12.1241 25.9254 11.7837 25.595 11.626Z" fill="url(#paint0_linear)"/>
<defs>
<linearGradient id="paint0_linear" x1="-12.63" y1="12.4015" x2="11.8282" y2="37.9714" gradientUnits="userSpaceOnUse">
<stop stop-color="#6E00DD"/>
<stop offset="1" stop-color="#A826C7"/>
</linearGradient>
</defs>
</svg>
