<svg width="26" height="25" viewBox="0 0 26 25" fill="none" xmlns="http://www.w3.org/2000/svg">
<path fill-rule="evenodd" clip-rule="evenodd" d="M11.123 0.000128273L13.7764 0C13.8566 0.00372362 13.9271 0.0128994 14.026 0.0344417C14.7516 0.192446 15.0275 0.452997 15.7028 2.04875L15.8129 2.31199L16.2373 3.36356L16.2722 3.3779L16.819 3.13037C18.0099 2.59783 18.6238 2.37351 19.0366 2.31093L19.1221 2.29994L19.2779 2.29153C19.6496 2.29153 20.0281 2.42317 20.3179 2.65238L20.4549 2.77496L22.1512 4.46425L22.2692 4.58888C22.802 5.17585 22.8517 5.59198 22.2624 7.1086L22.0663 7.59787L21.604 8.69167L21.6127 8.71303L22.6717 9.10849L23.1823 9.31027C24.5011 9.84946 24.772 10.1368 24.9483 10.797C24.9839 10.9301 24.9965 11.0207 25.0006 11.1333L25.0024 11.2555V13.6404C25.0024 13.81 24.9966 13.9057 24.9548 14.0733C24.7793 14.778 24.5189 15.0463 22.934 15.7158L22.6726 15.8249L21.6282 16.2463L21.621 16.2639L21.9986 17.0889C22.9376 19.1759 22.9705 19.6335 22.3532 20.3208L22.2761 20.4045L20.5348 22.1445C20.2231 22.4596 19.7789 22.6331 19.3492 22.6331C18.9843 22.6331 18.4111 22.4596 17.434 22.0678L16.911 21.8535L16.3151 21.6016L16.281 21.6157L15.9732 22.4414C15.2194 24.4273 14.9612 24.7497 14.1868 24.9495C14.0724 24.979 13.9906 24.9916 13.8976 24.9968L13.7445 25H11.3581C11.2092 25 11.1251 24.9955 10.9772 24.9635C10.2518 24.8062 9.97487 24.5451 9.29822 22.9484L9.18794 22.685L8.76283 21.6329L8.73012 21.6194L7.93594 21.9764C6.66563 22.5356 6.11532 22.7058 5.72311 22.7058C5.35583 22.7058 4.98182 22.5767 4.6843 22.3454L4.54229 22.2213L2.84831 20.5295L2.65487 20.3185C2.19031 19.7719 2.16747 19.3481 2.73768 17.8892L3.03482 17.1589L3.39754 16.3062L3.38997 16.2879L2.56879 15.9819C0.921443 15.3568 0.413764 15.0689 0.172514 14.5432L0.107258 14.3778L0.0527489 14.1947C0.0219055 14.0776 0.00874267 13.9937 0.0033945 13.8983L0 13.7409V11.3545C0 11.1837 0.00592298 11.0871 0.0484697 10.9181C0.207096 10.2881 0.432243 10.0082 1.61824 9.47679L2.10977 9.26453L3.37198 8.7541L3.38063 8.73308L2.9087 7.69183C2.12999 5.92308 2.0655 5.38454 2.55681 4.78304L2.62403 4.70412L2.78322 4.5354L4.47063 2.85182C4.77978 2.54095 5.22199 2.3657 5.6524 2.3657C5.96026 2.3657 6.41228 2.48751 7.13574 2.76152L7.86357 3.05005L8.68868 3.39586L8.7225 3.38179L9.03271 2.55069C9.79349 0.550511 10.0651 0.216017 10.8675 0.0363742C10.9688 0.0137137 11.041 0.00405174 11.123 0.000128273ZM13.1552 2.49786H11.7614L11.5648 2.95856C11.4902 3.14172 11.406 3.35565 11.311 3.60398L10.8753 4.76924C10.7709 5.04512 10.5729 5.27362 10.3183 5.41654L10.1865 5.48069L9.16254 5.9068C8.90401 6.01438 8.61846 6.03145 8.35146 5.95819L8.19385 5.90338L6.98239 5.39274L6.32803 5.13179L5.8882 4.96946L4.90034 5.95508L5.0166 6.24874C5.06204 6.35935 5.11433 6.48301 5.17395 6.62078L5.37531 7.07742L5.8803 8.18139C6.00126 8.44429 6.02655 8.73924 5.95514 9.0161L5.90069 9.17965L5.48197 10.1971C5.37112 10.4665 5.17034 10.6873 4.91616 10.8234L4.78479 10.8843L3.42519 11.4308L2.74554 11.7221L2.50041 11.8356V13.2485L2.79372 13.3756C2.90477 13.4221 3.02947 13.4727 3.16894 13.528L3.63275 13.708L4.75977 14.1265C5.04391 14.2289 5.27968 14.4301 5.42591 14.6905L5.49137 14.8256L5.91015 15.8401C6.01768 16.1006 6.03343 16.3881 5.95781 16.6563L5.90147 16.8145L5.41546 17.955L5.11065 18.7074L4.96216 19.1069L5.95008 20.0936L6.24424 19.9773C6.3526 19.9332 6.47135 19.8836 6.6008 19.8284L7.50819 19.4283L8.16257 19.127C8.4364 18.9962 8.74679 18.9701 9.03597 19.0504L9.17853 19.0995L10.2085 19.5247C10.4816 19.6374 10.7043 19.8425 10.8396 20.1015L10.8998 20.2354L11.1561 20.8822L11.5209 21.7693L11.732 22.254L11.8465 22.4998H13.2444L13.444 22.0291L13.704 21.3652L14.1274 20.23C14.2318 19.9517 14.4313 19.7212 14.6881 19.5778L14.821 19.5135L15.8467 19.0902C16.1022 18.9848 16.3839 18.9676 16.648 19.0385L16.8039 19.0917L17.7697 19.5013L18.4746 19.7884L18.8603 19.9372L19.1149 20.0293L20.1039 19.042L19.9133 18.5716L19.6275 17.9197L19.1215 16.8166C19 16.5532 18.9747 16.2576 19.0464 15.9802L19.1011 15.8164L19.5191 14.8033C19.6294 14.536 19.8283 14.3166 20.0801 14.1805L20.2102 14.1195L21.3617 13.6566L21.9495 13.4102L22.1112 13.3399L22.5023 13.161V11.7495L22.1102 11.5821L21.5791 11.3719L20.2384 10.8729C19.955 10.7697 19.72 10.5683 19.5745 10.3077L19.5094 10.1728L19.0913 9.15414C18.9847 8.89426 18.9693 8.60767 19.0446 8.34035L19.1007 8.18264L19.4888 7.27519C19.5899 7.03521 19.6778 6.82241 19.7538 6.63432L19.89 6.29037L20.0384 5.88844L19.0499 4.90411L18.7556 5.02058C18.5928 5.08696 18.4063 5.16574 18.1947 5.25773L17.9746 5.35416L16.821 5.87743C16.5585 5.99769 16.2643 6.0227 15.9881 5.95148L15.8249 5.89719L14.7956 5.47406C14.5261 5.3633 14.3053 5.1626 14.169 4.90845L14.1081 4.77709L13.7442 3.86651L13.4804 3.22858L13.3344 2.88931L13.1552 2.49786ZM12.5018 7.49833C15.2597 7.49833 17.5017 9.73981 17.5017 12.4977C17.5017 15.2558 15.2596 17.4993 12.5018 17.4993C9.7432 17.4993 7.50071 15.2562 7.50071 12.4977C7.50071 9.73941 9.74304 7.49833 12.5018 7.49833ZM12.5022 9.99859C11.124 9.99859 10.0014 11.1206 10.0014 12.4977C10.0014 13.8755 11.1246 14.9991 12.5022 14.9991C13.8788 14.9991 15.0018 13.8753 15.0018 12.4977C15.0018 11.1208 13.8794 9.99859 12.5022 9.99859Z" fill="white"/>
</svg>
