<svg width="27" height="39" viewBox="0 0 27 39" fill="none" xmlns="http://www.w3.org/2000/svg">
<g filter="url(#filter0_d)">
<path d="M7.79984 2.97952C7.79984 4.62666 7.79984 18.5361 7.79984 18.5361C7.79984 18.6842 7.66102 18.8039 7.51328 18.8039C7.36553 18.8039 7.25066 18.6834 7.23645 18.5361C7.17597 17.8882 7.17638 14.3431 7.17638 14.3431C3.54032 14.3431 3.16811 20.0764 5.33603 22.7363C7.26811 25.1068 8.32305 26.2413 8.32508 26.2441C8.5402 26.4982 8.78456 26.6739 9.07721 26.8322C9.28544 26.9451 11.688 28.1806 15.2846 28.1806C17.4241 28.1806 18.9735 27.7756 19.9566 27.4042C19.3558 28.7298 17.6791 29.5148 15.2846 29.5148C11.8743 29.5148 9.17381 28.4254 9.17381 28.4254C9.17381 28.4254 9.1454 28.4814 9.13201 28.5127C8.94976 28.9571 8.97127 29.5652 9.49326 29.8014C9.61584 29.857 11.6104 30.8474 15.2846 30.8474C17.1558 30.8474 18.706 30.4163 19.7682 29.6005C20.6446 28.9275 21.1803 27.8531 21.311 26.7563C22.0226 26.3293 22.3502 25.5455 22.4873 24.7114C22.571 24.2024 22.6408 23.6524 22.7 23.0821C22.8514 21.7841 22.9992 19.884 22.9996 17.4186C22.9996 17.4154 23 17.4129 23 17.4101C23 16.9948 22.6331 6.67605 22.5986 5.20223C22.5775 4.29463 21.8627 3.55874 20.9547 3.55793C20.0467 3.55793 19.3075 4.29382 19.3112 5.20223C19.3152 6.43535 19.3469 10.1351 19.3469 10.1351L19.3473 10.1355C19.0112 9.92691 18.622 9.79539 18.199 9.77794C17.5902 9.75277 17.0268 9.96019 16.5904 10.3194C16.2129 9.5758 15.4555 9.05138 14.5625 9.01688C14.1299 8.99942 13.7195 9.10008 13.3627 9.28883C12.8022 9.63993 13.0489 10.2614 12.6504 10.2614C12.3959 10.2614 12.1795 10.17 12.1714 9.7134C12.1495 8.47256 12.0614 3.47593 12.0443 2.97952C12.0025 1.80768 11.0941 0.857061 9.92189 0.857061C8.75005 0.857061 7.79984 1.80728 7.79984 2.97952Z" fill="#FF464F"/>
</g>
<defs>
<filter id="filter0_d" x="0" y="0.857056" width="27" height="37.9904" filterUnits="userSpaceOnUse" color-interpolation-filters="sRGB">
<feFlood flood-opacity="0" result="BackgroundImageFix"/>
<feColorMatrix in="SourceAlpha" type="matrix" values="0 0 0 0 0 0 0 0 0 0 0 0 0 0 0 0 0 0 127 0"/>
<feOffset dy="4"/>
<feGaussianBlur stdDeviation="2"/>
<feColorMatrix type="matrix" values="0 0 0 0 0 0 0 0 0 0 0 0 0 0 0 0 0 0 0.25 0"/>
<feBlend mode="normal" in2="BackgroundImageFix" result="effect1_dropShadow"/>
<feBlend mode="normal" in="SourceGraphic" in2="effect1_dropShadow" result="shape"/>
</filter>
</defs>
</svg>
